<mxfile host="app.diagrams.net" agent="Mozilla/5.0 (Windows NT 10.0; Win64; x64) AppleWebKit/537.36 (KHTML, like Gecko) Chrome/130.0.0.0 Safari/537.36" version="24.8.3">
  <diagram name="Page-1" id="FqFQHGygXu87dhxxS1ba">
    <mxGraphModel grid="1" page="1" gridSize="10" guides="1" tooltips="1" connect="1" arrows="1" fold="1" pageScale="1" pageWidth="850" pageHeight="1100" math="0" shadow="0">
      <root>
        <mxCell id="0" />
        <mxCell id="1" parent="0" />
        <mxCell id="fiFismom7TFnfdeaMlCz-1" value="" style="shape=umlLifeline;perimeter=lifelinePerimeter;whiteSpace=wrap;html=1;container=1;dropTarget=0;collapsible=0;recursiveResize=0;outlineConnect=0;portConstraint=eastwest;newEdgeStyle={&quot;curved&quot;:0,&quot;rounded&quot;:0};participant=umlActor;strokeColor=default;align=center;verticalAlign=bottom;fontFamily=Helvetica;fontSize=12;fontColor=default;fillColor=default;" vertex="1" parent="1">
          <mxGeometry x="340" y="80" width="20" height="640" as="geometry" />
        </mxCell>
        <mxCell id="fiFismom7TFnfdeaMlCz-2" value="" style="html=1;points=[[0,0,0,0,5],[0,1,0,0,-5],[1,0,0,0,5],[1,1,0,0,-5]];perimeter=orthogonalPerimeter;outlineConnect=0;targetShapes=umlLifeline;portConstraint=eastwest;newEdgeStyle={&quot;curved&quot;:0,&quot;rounded&quot;:0};strokeColor=default;align=center;verticalAlign=bottom;fontFamily=Helvetica;fontSize=12;fontColor=default;fillColor=default;" vertex="1" parent="fiFismom7TFnfdeaMlCz-1">
          <mxGeometry x="5" y="90" width="10" height="380" as="geometry" />
        </mxCell>
        <mxCell id="Ts3vcEo9JU1vxh9fjrlP-1" value=":User" style="text;align=center;fontStyle=1;verticalAlign=middle;spacingLeft=3;spacingRight=3;strokeColor=none;rotatable=0;points=[[0,0.5],[1,0.5]];portConstraint=eastwest;html=1;fontFamily=Helvetica;fontSize=12;fontColor=default;" vertex="1" parent="1">
          <mxGeometry x="310" y="120" width="80" height="20" as="geometry" />
        </mxCell>
        <mxCell id="Ts3vcEo9JU1vxh9fjrlP-2" value="" style="shape=umlLifeline;perimeter=lifelinePerimeter;whiteSpace=wrap;html=1;container=1;dropTarget=0;collapsible=0;recursiveResize=0;outlineConnect=0;portConstraint=eastwest;newEdgeStyle={&quot;curved&quot;:0,&quot;rounded&quot;:0};participant=umlBoundary;" vertex="1" parent="1">
          <mxGeometry x="572.5" y="80" width="50" height="640" as="geometry" />
        </mxCell>
        <mxCell id="Ts3vcEo9JU1vxh9fjrlP-3" value="" style="html=1;points=[[0,0,0,0,5],[0,1,0,0,-5],[1,0,0,0,5],[1,1,0,0,-5]];perimeter=orthogonalPerimeter;outlineConnect=0;targetShapes=umlLifeline;portConstraint=eastwest;newEdgeStyle={&quot;curved&quot;:0,&quot;rounded&quot;:0};strokeColor=default;align=center;verticalAlign=bottom;fontFamily=Helvetica;fontSize=12;fontColor=default;fillColor=default;" vertex="1" parent="Ts3vcEo9JU1vxh9fjrlP-2">
          <mxGeometry x="20" y="90" width="10" height="510" as="geometry" />
        </mxCell>
        <mxCell id="Ts3vcEo9JU1vxh9fjrlP-26" value="" style="html=1;points=[[0,0,0,0,5],[0,1,0,0,-5],[1,0,0,0,5],[1,1,0,0,-5]];perimeter=orthogonalPerimeter;outlineConnect=0;targetShapes=umlLifeline;portConstraint=eastwest;newEdgeStyle={&quot;curved&quot;:0,&quot;rounded&quot;:0};" vertex="1" parent="Ts3vcEo9JU1vxh9fjrlP-2">
          <mxGeometry x="30" y="260" width="10" height="40" as="geometry" />
        </mxCell>
        <mxCell id="Ts3vcEo9JU1vxh9fjrlP-36" value="" style="html=1;points=[[0,0,0,0,5],[0,1,0,0,-5],[1,0,0,0,5],[1,1,0,0,-5]];perimeter=orthogonalPerimeter;outlineConnect=0;targetShapes=umlLifeline;portConstraint=eastwest;newEdgeStyle={&quot;curved&quot;:0,&quot;rounded&quot;:0};" vertex="1" parent="Ts3vcEo9JU1vxh9fjrlP-2">
          <mxGeometry x="30" y="550" width="10" height="40" as="geometry" />
        </mxCell>
        <mxCell id="Ts3vcEo9JU1vxh9fjrlP-37" value="" style="html=1;align=left;spacingLeft=2;endArrow=block;rounded=0;edgeStyle=orthogonalEdgeStyle;curved=0;rounded=0;" edge="1" parent="Ts3vcEo9JU1vxh9fjrlP-2">
          <mxGeometry relative="1" as="geometry">
            <mxPoint x="30" y="540" as="sourcePoint" />
            <Array as="points">
              <mxPoint x="78" y="540" />
              <mxPoint x="78" y="570" />
              <mxPoint x="40" y="570" />
            </Array>
            <mxPoint x="40.5" y="570" as="targetPoint" />
          </mxGeometry>
        </mxCell>
        <mxCell id="t-mFLz1FdqMVK53F0bT8-2" value="onCreate()" style="edgeLabel;html=1;align=center;verticalAlign=middle;resizable=0;points=[];" connectable="0" vertex="1" parent="Ts3vcEo9JU1vxh9fjrlP-37">
          <mxGeometry x="0.0537" y="-1" relative="1" as="geometry">
            <mxPoint as="offset" />
          </mxGeometry>
        </mxCell>
        <mxCell id="Ts3vcEo9JU1vxh9fjrlP-6" value=":MainActivity" style="text;align=center;fontStyle=1;verticalAlign=middle;spacingLeft=3;spacingRight=3;strokeColor=none;rotatable=0;points=[[0,0.5],[1,0.5]];portConstraint=eastwest;html=1;fontFamily=Helvetica;fontSize=12;fontColor=default;" vertex="1" parent="1">
          <mxGeometry x="530" y="120" width="135" height="25" as="geometry" />
        </mxCell>
        <mxCell id="Ts3vcEo9JU1vxh9fjrlP-7" value="&lt;span style=&quot;font-size: 12px; text-align: left; text-wrap: wrap; background-color: rgb(251, 251, 251);&quot;&gt;backUpAllData&lt;/span&gt;" style="html=1;verticalAlign=bottom;endArrow=block;curved=0;rounded=0;" edge="1" parent="1">
          <mxGeometry width="80" relative="1" as="geometry">
            <mxPoint x="355" y="190" as="sourcePoint" />
            <mxPoint x="592.5" y="190" as="targetPoint" />
          </mxGeometry>
        </mxCell>
        <mxCell id="Ts3vcEo9JU1vxh9fjrlP-15" value="" style="shape=umlLifeline;perimeter=lifelinePerimeter;whiteSpace=wrap;html=1;container=1;dropTarget=0;collapsible=0;recursiveResize=0;outlineConnect=0;portConstraint=eastwest;newEdgeStyle={&quot;curved&quot;:0,&quot;rounded&quot;:0};participant=umlControl;strokeColor=default;align=center;verticalAlign=bottom;fontFamily=Helvetica;fontSize=12;fontColor=default;fillColor=default;" vertex="1" parent="1">
          <mxGeometry x="800" y="80" width="40" height="640" as="geometry" />
        </mxCell>
        <mxCell id="Ts3vcEo9JU1vxh9fjrlP-16" value="" style="html=1;points=[[0,0,0,0,5],[0,1,0,0,-5],[1,0,0,0,5],[1,1,0,0,-5]];perimeter=orthogonalPerimeter;outlineConnect=0;targetShapes=umlLifeline;portConstraint=eastwest;newEdgeStyle={&quot;curved&quot;:0,&quot;rounded&quot;:0};strokeColor=default;align=center;verticalAlign=bottom;fontFamily=Helvetica;fontSize=12;fontColor=default;fillColor=default;" vertex="1" parent="Ts3vcEo9JU1vxh9fjrlP-15">
          <mxGeometry x="15" y="100" width="10" height="190" as="geometry" />
        </mxCell>
        <mxCell id="Ts3vcEo9JU1vxh9fjrlP-32" value="" style="html=1;points=[[0,0,0,0,5],[0,1,0,0,-5],[1,0,0,0,5],[1,1,0,0,-5]];perimeter=orthogonalPerimeter;outlineConnect=0;targetShapes=umlLifeline;portConstraint=eastwest;newEdgeStyle={&quot;curved&quot;:0,&quot;rounded&quot;:0};strokeColor=default;align=center;verticalAlign=bottom;fontFamily=Helvetica;fontSize=12;fontColor=default;fillColor=default;" vertex="1" parent="Ts3vcEo9JU1vxh9fjrlP-15">
          <mxGeometry x="15" y="350" width="10" height="200" as="geometry" />
        </mxCell>
        <mxCell id="Ts3vcEo9JU1vxh9fjrlP-19" value="&lt;span style=&quot;font-size: 12px; text-align: left; text-wrap: wrap; background-color: rgb(251, 251, 251);&quot;&gt;backUpAllData(userID)&lt;/span&gt;" style="html=1;verticalAlign=bottom;endArrow=block;curved=0;rounded=0;" edge="1" parent="1" target="Ts3vcEo9JU1vxh9fjrlP-16">
          <mxGeometry width="80" relative="1" as="geometry">
            <mxPoint x="602.5" y="200" as="sourcePoint" />
            <mxPoint x="775" y="200" as="targetPoint" />
          </mxGeometry>
        </mxCell>
        <mxCell id="Ts3vcEo9JU1vxh9fjrlP-20" value="&lt;div style=&quot;text-align: left;&quot;&gt;&lt;span style=&quot;font-size: 12px; text-wrap: wrap; background-color: rgb(251, 251, 251);&quot;&gt;result&lt;/span&gt;&lt;/div&gt;" style="html=1;verticalAlign=bottom;endArrow=block;curved=0;rounded=0;dashed=1;" edge="1" parent="1">
          <mxGeometry x="-0.0118" y="20" width="80" relative="1" as="geometry">
            <mxPoint x="815" y="310" as="sourcePoint" />
            <mxPoint x="602.5" y="310" as="targetPoint" />
            <Array as="points">
              <mxPoint x="720" y="310" />
            </Array>
            <mxPoint as="offset" />
          </mxGeometry>
        </mxCell>
        <mxCell id="Ts3vcEo9JU1vxh9fjrlP-21" value="" style="shape=umlLifeline;perimeter=lifelinePerimeter;whiteSpace=wrap;html=1;container=1;dropTarget=0;collapsible=0;recursiveResize=0;outlineConnect=0;portConstraint=eastwest;newEdgeStyle={&quot;curved&quot;:0,&quot;rounded&quot;:0};participant=umlControl;strokeColor=default;align=center;verticalAlign=bottom;fontFamily=Helvetica;fontSize=12;fontColor=default;fillColor=default;size=40;" vertex="1" parent="1">
          <mxGeometry x="950" y="80" width="40" height="640" as="geometry" />
        </mxCell>
        <mxCell id="Ts3vcEo9JU1vxh9fjrlP-22" value="" style="html=1;points=[[0,0,0,0,5],[0,1,0,0,-5],[1,0,0,0,5],[1,1,0,0,-5]];perimeter=orthogonalPerimeter;outlineConnect=0;targetShapes=umlLifeline;portConstraint=eastwest;newEdgeStyle={&quot;curved&quot;:0,&quot;rounded&quot;:0};strokeColor=default;align=center;verticalAlign=bottom;fontFamily=Helvetica;fontSize=12;fontColor=default;fillColor=default;" vertex="1" parent="Ts3vcEo9JU1vxh9fjrlP-21">
          <mxGeometry x="15" y="310" width="10" height="40" as="geometry" />
        </mxCell>
        <mxCell id="Ts3vcEo9JU1vxh9fjrlP-23" value="&lt;div&gt;&lt;br&gt;&lt;/div&gt;:&lt;span style=&quot;font-weight: 400; text-wrap-mode: wrap; background-color: initial; text-align: left;&quot;&gt;&lt;b&gt;DeviceInfoAdapter&lt;/b&gt;&lt;/span&gt;&lt;span style=&quot;font-weight: 400; text-wrap-mode: wrap; background-color: initial; text-align: left;&quot;&gt;&lt;b&gt;&amp;nbsp;&lt;/b&gt;&lt;/span&gt;&lt;div&gt;&lt;span style=&quot;text-wrap: wrap;&quot;&gt;&lt;br&gt;&lt;/span&gt;&lt;div&gt;&lt;b style=&quot;text-wrap: wrap;&quot;&gt;&lt;br&gt;&lt;/b&gt;&lt;/div&gt;&lt;/div&gt;" style="text;align=center;fontStyle=1;verticalAlign=middle;spacingLeft=3;spacingRight=3;strokeColor=none;rotatable=0;points=[[0,0.5],[1,0.5]];portConstraint=eastwest;html=1;fontFamily=Helvetica;fontSize=12;fontColor=default;" vertex="1" parent="1">
          <mxGeometry x="750" y="120" width="135" height="25" as="geometry" />
        </mxCell>
        <mxCell id="Ts3vcEo9JU1vxh9fjrlP-28" value="&lt;span style=&quot;font-size: 12px; text-align: left; text-wrap: wrap; background-color: rgb(251, 251, 251);&quot;&gt;restoreAllData()&lt;/span&gt;" style="html=1;verticalAlign=bottom;endArrow=block;curved=0;rounded=0;" edge="1" parent="1">
          <mxGeometry width="80" relative="1" as="geometry">
            <mxPoint x="360" y="390" as="sourcePoint" />
            <mxPoint x="587.5" y="390" as="targetPoint" />
          </mxGeometry>
        </mxCell>
        <mxCell id="Ts3vcEo9JU1vxh9fjrlP-29" value="&lt;span style=&quot;font-size: 12px; text-align: left; text-wrap: wrap; background-color: rgb(251, 251, 251);&quot;&gt;getEmailAddress(userID)&lt;/span&gt;" style="html=1;verticalAlign=bottom;endArrow=block;curved=0;rounded=0;" edge="1" parent="1">
          <mxGeometry width="80" relative="1" as="geometry">
            <mxPoint x="602.5" y="399.58" as="sourcePoint" />
            <mxPoint x="965" y="399.58" as="targetPoint" />
          </mxGeometry>
        </mxCell>
        <mxCell id="Ts3vcEo9JU1vxh9fjrlP-31" value="&lt;div style=&quot;text-align: left;&quot;&gt;&lt;span style=&quot;font-size: 12px; text-wrap: wrap; background-color: rgb(251, 251, 251);&quot;&gt;emailAddress&lt;/span&gt;&lt;/div&gt;" style="html=1;verticalAlign=bottom;endArrow=block;curved=0;rounded=0;dashed=1;" edge="1" parent="1">
          <mxGeometry width="80" relative="1" as="geometry">
            <mxPoint x="965" y="420" as="sourcePoint" />
            <mxPoint x="602.5" y="420" as="targetPoint" />
          </mxGeometry>
        </mxCell>
        <mxCell id="Ts3vcEo9JU1vxh9fjrlP-33" value="&lt;span style=&quot;font-size: 12px; text-align: left; text-wrap: wrap; background-color: rgb(251, 251, 251);&quot;&gt;restoreAllData(&lt;/span&gt;&lt;span style=&quot;font-size: 12px; text-align: left; text-wrap: wrap; background-color: rgb(251, 251, 251);&quot;&gt;emailAddress&lt;/span&gt;&lt;span style=&quot;font-size: 12px; text-align: left; text-wrap: wrap; background-color: rgb(251, 251, 251);&quot;&gt;)&lt;/span&gt;" style="html=1;verticalAlign=bottom;endArrow=block;curved=0;rounded=0;" edge="1" parent="1">
          <mxGeometry width="80" relative="1" as="geometry">
            <mxPoint x="602.5" y="450" as="sourcePoint" />
            <mxPoint x="815" y="450" as="targetPoint" />
          </mxGeometry>
        </mxCell>
        <mxCell id="Ts3vcEo9JU1vxh9fjrlP-34" value="&lt;div style=&quot;text-align: left;&quot;&gt;&lt;span style=&quot;font-size: 12px; text-wrap: wrap; background-color: rgb(251, 251, 251);&quot;&gt;Information&lt;/span&gt;&lt;br&gt;&lt;/div&gt;" style="html=1;verticalAlign=bottom;endArrow=block;curved=0;rounded=0;dashed=1;" edge="1" parent="1">
          <mxGeometry width="80" relative="1" as="geometry">
            <mxPoint x="812.5" y="610" as="sourcePoint" />
            <mxPoint x="600" y="610" as="targetPoint" />
          </mxGeometry>
        </mxCell>
        <mxCell id="Ts3vcEo9JU1vxh9fjrlP-38" value="Opt" style="shape=umlFrame;whiteSpace=wrap;html=1;pointerEvents=0;" vertex="1" parent="1">
          <mxGeometry x="520" y="470" width="500" height="120" as="geometry" />
        </mxCell>
        <mxCell id="Ts3vcEo9JU1vxh9fjrlP-39" value="&lt;span style=&quot;font-size: 12px; text-align: left; text-wrap: wrap; background-color: rgb(251, 251, 251);&quot;&gt;terminateBackUpOrRestore()&lt;/span&gt;" style="html=1;verticalAlign=bottom;endArrow=block;curved=0;rounded=0;" edge="1" parent="1">
          <mxGeometry width="80" relative="1" as="geometry">
            <mxPoint x="355" y="520" as="sourcePoint" />
            <mxPoint x="592.5" y="520" as="targetPoint" />
          </mxGeometry>
        </mxCell>
        <mxCell id="Ts3vcEo9JU1vxh9fjrlP-41" value="" style="html=1;points=[[0,0,0,0,5],[0,1,0,0,-5],[1,0,0,0,5],[1,1,0,0,-5]];perimeter=orthogonalPerimeter;outlineConnect=0;targetShapes=umlLifeline;portConstraint=eastwest;newEdgeStyle={&quot;curved&quot;:0,&quot;rounded&quot;:0};" vertex="1" parent="1">
          <mxGeometry x="602.5" y="550" width="10" height="30" as="geometry" />
        </mxCell>
        <mxCell id="Ts3vcEo9JU1vxh9fjrlP-42" value="" style="html=1;align=left;spacingLeft=2;endArrow=block;rounded=0;edgeStyle=orthogonalEdgeStyle;curved=0;rounded=0;" edge="1" parent="1" source="Ts3vcEo9JU1vxh9fjrlP-3" target="Ts3vcEo9JU1vxh9fjrlP-41">
          <mxGeometry relative="1" as="geometry">
            <mxPoint x="600" y="515" as="sourcePoint" />
            <Array as="points">
              <mxPoint x="648" y="530" />
              <mxPoint x="648" y="560" />
            </Array>
            <mxPoint x="610" y="550" as="targetPoint" />
          </mxGeometry>
        </mxCell>
        <mxCell id="t-mFLz1FdqMVK53F0bT8-1" value="&lt;span style=&quot;font-size: 12px; text-align: left; text-wrap-mode: wrap; background-color: rgb(251, 251, 251);&quot;&gt;onCreate()&lt;/span&gt;" style="edgeLabel;html=1;align=center;verticalAlign=middle;resizable=0;points=[];" connectable="0" vertex="1" parent="Ts3vcEo9JU1vxh9fjrlP-42">
          <mxGeometry x="0.2527" y="5" relative="1" as="geometry">
            <mxPoint y="-14" as="offset" />
          </mxGeometry>
        </mxCell>
        <mxCell id="Ts3vcEo9JU1vxh9fjrlP-43" value="Opt" style="shape=umlFrame;whiteSpace=wrap;html=1;pointerEvents=0;" vertex="1" parent="1">
          <mxGeometry x="510" y="210" width="500" height="80" as="geometry" />
        </mxCell>
        <mxCell id="Ts3vcEo9JU1vxh9fjrlP-44" value="&lt;span style=&quot;font-size: 12px; text-align: left; text-wrap: wrap; background-color: rgb(251, 251, 251);&quot;&gt;terminateBackUpOrRestore()&lt;/span&gt;" style="html=1;verticalAlign=bottom;endArrow=block;curved=0;rounded=0;" edge="1" parent="1">
          <mxGeometry width="80" relative="1" as="geometry">
            <mxPoint x="355" y="270" as="sourcePoint" />
            <mxPoint x="590" y="270" as="targetPoint" />
          </mxGeometry>
        </mxCell>
        <mxCell id="Ts3vcEo9JU1vxh9fjrlP-27" value="displayUI()" style="html=1;align=left;spacingLeft=2;endArrow=block;rounded=0;edgeStyle=orthogonalEdgeStyle;curved=0;rounded=0;" edge="1" parent="1">
          <mxGeometry relative="1" as="geometry">
            <mxPoint x="602.5" y="340" as="sourcePoint" />
            <Array as="points">
              <mxPoint x="602" y="330" />
              <mxPoint x="640" y="330" />
              <mxPoint x="640" y="370" />
            </Array>
            <mxPoint x="612.5" y="370" as="targetPoint" />
          </mxGeometry>
        </mxCell>
        <mxCell id="Ts3vcEo9JU1vxh9fjrlP-48" value="sd&amp;nbsp;Backup_and_Restore_User_Data" style="shape=umlFrame;whiteSpace=wrap;html=1;pointerEvents=0;width=210;height=30;fillColor=#e1d5e7;strokeColor=#9673a6;" vertex="1" parent="1">
          <mxGeometry x="250" y="25" width="850" height="750" as="geometry" />
        </mxCell>
        <mxCell id="kERyETG9UBJsuMSgzVu_-1" value="&lt;div&gt;&lt;br&gt;&lt;/div&gt;:User&lt;b style=&quot;text-wrap: wrap;&quot;&gt;Controller&lt;/b&gt;&lt;div&gt;&lt;span style=&quot;text-wrap: wrap;&quot;&gt;&lt;br&gt;&lt;/span&gt;&lt;div&gt;&lt;b style=&quot;text-wrap: wrap;&quot;&gt;&lt;br&gt;&lt;/b&gt;&lt;/div&gt;&lt;/div&gt;" style="text;align=center;fontStyle=1;verticalAlign=middle;spacingLeft=3;spacingRight=3;strokeColor=none;rotatable=0;points=[[0,0.5],[1,0.5]];portConstraint=eastwest;html=1;fontFamily=Helvetica;fontSize=12;fontColor=default;" vertex="1" parent="1">
          <mxGeometry x="902.5" y="120" width="135" height="25" as="geometry" />
        </mxCell>
      </root>
    </mxGraphModel>
  </diagram>
</mxfile>
